<mxfile host="app.diagrams.net" modified="2021-10-11T07:58:44.047Z" agent="5.0 (Macintosh; Intel Mac OS X 10_15_7) AppleWebKit/537.36 (KHTML, like Gecko) Chrome/94.0.4606.81 Safari/537.36" etag="aQXLgv3zLSFfw5fG57by" version="15.5.0" type="github">
  <diagram id="hUgW_YDyqy1Qh8bwAnyM" name="Page-1">
    <mxGraphModel dx="1715" dy="1043" grid="1" gridSize="10" guides="1" tooltips="1" connect="1" arrows="1" fold="1" page="1" pageScale="1" pageWidth="850" pageHeight="1100" math="0" shadow="0">
      <root>
        <mxCell id="0" />
        <mxCell id="1" parent="0" />
        <mxCell id="0cehYmTyR-W1oyNYQ-pE-1" value="流程创建" style="rounded=0;whiteSpace=wrap;html=1;" vertex="1" parent="1">
          <mxGeometry x="140" y="190" width="120" height="60" as="geometry" />
        </mxCell>
        <mxCell id="0cehYmTyR-W1oyNYQ-pE-2" value="审核拒绝" style="rounded=0;whiteSpace=wrap;html=1;" vertex="1" parent="1">
          <mxGeometry x="300" y="190" width="120" height="60" as="geometry" />
        </mxCell>
        <mxCell id="0cehYmTyR-W1oyNYQ-pE-6" value="流程结束" style="rounded=0;whiteSpace=wrap;html=1;fillColor=#ffe6cc;strokeColor=#d79b00;" vertex="1" parent="1">
          <mxGeometry x="470" y="190" width="120" height="60" as="geometry" />
        </mxCell>
        <mxCell id="0cehYmTyR-W1oyNYQ-pE-7" value="流程创建" style="rounded=0;whiteSpace=wrap;html=1;" vertex="1" parent="1">
          <mxGeometry x="130" y="600" width="120" height="60" as="geometry" />
        </mxCell>
        <mxCell id="0cehYmTyR-W1oyNYQ-pE-8" value="审核通过" style="rounded=0;whiteSpace=wrap;html=1;" vertex="1" parent="1">
          <mxGeometry x="290" y="600" width="120" height="60" as="geometry" />
        </mxCell>
        <mxCell id="0cehYmTyR-W1oyNYQ-pE-9" value="待司机确认" style="rounded=0;whiteSpace=wrap;html=1;fillColor=#ffe6cc;strokeColor=#d79b00;" vertex="1" parent="1">
          <mxGeometry x="470" y="600" width="120" height="60" as="geometry" />
        </mxCell>
        <mxCell id="0cehYmTyR-W1oyNYQ-pE-10" value="流程结束" style="rounded=0;whiteSpace=wrap;html=1;" vertex="1" parent="1">
          <mxGeometry x="640" y="600" width="120" height="60" as="geometry" />
        </mxCell>
        <mxCell id="0cehYmTyR-W1oyNYQ-pE-11" value="流程创建" style="rounded=0;whiteSpace=wrap;html=1;" vertex="1" parent="1">
          <mxGeometry x="135" y="70" width="120" height="60" as="geometry" />
        </mxCell>
        <mxCell id="0cehYmTyR-W1oyNYQ-pE-12" value="待审核" style="rounded=0;whiteSpace=wrap;html=1;fillColor=#ffe6cc;strokeColor=#d79b00;" vertex="1" parent="1">
          <mxGeometry x="295" y="70" width="120" height="60" as="geometry" />
        </mxCell>
        <mxCell id="0cehYmTyR-W1oyNYQ-pE-13" value="待司机确认" style="rounded=0;whiteSpace=wrap;html=1;" vertex="1" parent="1">
          <mxGeometry x="465" y="70" width="120" height="60" as="geometry" />
        </mxCell>
        <mxCell id="0cehYmTyR-W1oyNYQ-pE-14" value="流程结束" style="rounded=0;whiteSpace=wrap;html=1;" vertex="1" parent="1">
          <mxGeometry x="640" y="70" width="120" height="60" as="geometry" />
        </mxCell>
        <mxCell id="0cehYmTyR-W1oyNYQ-pE-23" value="待审核" style="text;html=1;resizable=0;autosize=1;align=center;verticalAlign=middle;points=[];fillColor=none;strokeColor=none;rounded=0;fontStyle=1;fontColor=#FF3333;" vertex="1" parent="1">
          <mxGeometry x="15" y="90" width="50" height="20" as="geometry" />
        </mxCell>
        <mxCell id="0cehYmTyR-W1oyNYQ-pE-24" value="审核拒绝" style="text;html=1;resizable=0;autosize=1;align=center;verticalAlign=middle;points=[];fillColor=none;strokeColor=none;rounded=0;fontStyle=1;fontColor=#FF3333;" vertex="1" parent="1">
          <mxGeometry x="10" y="210" width="60" height="20" as="geometry" />
        </mxCell>
        <mxCell id="0cehYmTyR-W1oyNYQ-pE-26" value="审核通过" style="text;html=1;resizable=0;autosize=1;align=center;verticalAlign=middle;points=[];fillColor=none;strokeColor=none;rounded=0;fontStyle=1;fontColor=#FF3333;" vertex="1" parent="1">
          <mxGeometry x="15" y="620" width="60" height="20" as="geometry" />
        </mxCell>
        <mxCell id="0cehYmTyR-W1oyNYQ-pE-28" value="流程创建" style="rounded=0;whiteSpace=wrap;html=1;" vertex="1" parent="1">
          <mxGeometry x="140" y="320" width="120" height="60" as="geometry" />
        </mxCell>
        <mxCell id="0cehYmTyR-W1oyNYQ-pE-29" value="审核取消" style="rounded=0;whiteSpace=wrap;html=1;" vertex="1" parent="1">
          <mxGeometry x="300" y="320" width="120" height="60" as="geometry" />
        </mxCell>
        <mxCell id="0cehYmTyR-W1oyNYQ-pE-30" value="流程结束" style="rounded=0;whiteSpace=wrap;html=1;fillColor=#ffe6cc;strokeColor=#d79b00;" vertex="1" parent="1">
          <mxGeometry x="470" y="320" width="120" height="60" as="geometry" />
        </mxCell>
        <mxCell id="0cehYmTyR-W1oyNYQ-pE-31" value="审核取消" style="text;html=1;resizable=0;autosize=1;align=center;verticalAlign=middle;points=[];fillColor=none;strokeColor=none;rounded=0;fontStyle=1;fontColor=#FF3333;" vertex="1" parent="1">
          <mxGeometry x="10" y="340" width="60" height="20" as="geometry" />
        </mxCell>
        <mxCell id="0cehYmTyR-W1oyNYQ-pE-32" value="流程创建" style="rounded=0;whiteSpace=wrap;html=1;" vertex="1" parent="1">
          <mxGeometry x="140" y="440" width="120" height="60" as="geometry" />
        </mxCell>
        <mxCell id="0cehYmTyR-W1oyNYQ-pE-33" value="审核过期" style="rounded=0;whiteSpace=wrap;html=1;" vertex="1" parent="1">
          <mxGeometry x="300" y="440" width="120" height="60" as="geometry" />
        </mxCell>
        <mxCell id="0cehYmTyR-W1oyNYQ-pE-34" value="流程结束" style="rounded=0;whiteSpace=wrap;html=1;fillColor=#ffe6cc;strokeColor=#d79b00;" vertex="1" parent="1">
          <mxGeometry x="470" y="440" width="120" height="60" as="geometry" />
        </mxCell>
        <mxCell id="0cehYmTyR-W1oyNYQ-pE-35" value="审核过期" style="text;html=1;resizable=0;autosize=1;align=center;verticalAlign=middle;points=[];fillColor=none;strokeColor=none;rounded=0;fontStyle=1;fontColor=#FF3333;" vertex="1" parent="1">
          <mxGeometry x="10" y="460" width="60" height="20" as="geometry" />
        </mxCell>
        <mxCell id="0cehYmTyR-W1oyNYQ-pE-36" value="流程创建" style="rounded=0;whiteSpace=wrap;html=1;" vertex="1" parent="1">
          <mxGeometry x="130" y="820" width="120" height="60" as="geometry" />
        </mxCell>
        <mxCell id="0cehYmTyR-W1oyNYQ-pE-37" value="审核通过" style="rounded=0;whiteSpace=wrap;html=1;" vertex="1" parent="1">
          <mxGeometry x="290" y="820" width="120" height="60" as="geometry" />
        </mxCell>
        <mxCell id="0cehYmTyR-W1oyNYQ-pE-38" value="司机确认过期" style="rounded=0;whiteSpace=wrap;html=1;" vertex="1" parent="1">
          <mxGeometry x="470" y="820" width="120" height="60" as="geometry" />
        </mxCell>
        <mxCell id="0cehYmTyR-W1oyNYQ-pE-39" value="流程结束" style="rounded=0;whiteSpace=wrap;html=1;fillColor=#ffe6cc;strokeColor=#d79b00;" vertex="1" parent="1">
          <mxGeometry x="640" y="820" width="120" height="60" as="geometry" />
        </mxCell>
        <mxCell id="0cehYmTyR-W1oyNYQ-pE-40" value="司机确认过期" style="text;html=1;resizable=0;autosize=1;align=center;verticalAlign=middle;points=[];fillColor=none;strokeColor=none;rounded=0;fontStyle=1;fontColor=#FF3333;" vertex="1" parent="1">
          <mxGeometry y="840" width="90" height="20" as="geometry" />
        </mxCell>
        <mxCell id="0cehYmTyR-W1oyNYQ-pE-41" value="流程创建" style="rounded=0;whiteSpace=wrap;html=1;" vertex="1" parent="1">
          <mxGeometry x="130" y="700" width="120" height="60" as="geometry" />
        </mxCell>
        <mxCell id="0cehYmTyR-W1oyNYQ-pE-42" value="审核通过" style="rounded=0;whiteSpace=wrap;html=1;" vertex="1" parent="1">
          <mxGeometry x="290" y="700" width="120" height="60" as="geometry" />
        </mxCell>
        <mxCell id="0cehYmTyR-W1oyNYQ-pE-43" value="司机已确认" style="rounded=0;whiteSpace=wrap;html=1;" vertex="1" parent="1">
          <mxGeometry x="470" y="700" width="120" height="60" as="geometry" />
        </mxCell>
        <mxCell id="0cehYmTyR-W1oyNYQ-pE-44" value="流程结束" style="rounded=0;whiteSpace=wrap;html=1;fillColor=#ffe6cc;strokeColor=#d79b00;" vertex="1" parent="1">
          <mxGeometry x="640" y="700" width="120" height="60" as="geometry" />
        </mxCell>
        <mxCell id="0cehYmTyR-W1oyNYQ-pE-45" value="司机确认通过" style="text;html=1;resizable=0;autosize=1;align=center;verticalAlign=middle;points=[];fillColor=none;strokeColor=none;rounded=0;fontStyle=1;fontColor=#FF3333;" vertex="1" parent="1">
          <mxGeometry y="720" width="90" height="20" as="geometry" />
        </mxCell>
        <mxCell id="0cehYmTyR-W1oyNYQ-pE-46" value="黄色背景色是当前状态 steps current，它前面的状态和流程结束都需要注明时间" style="text;html=1;resizable=0;autosize=1;align=center;verticalAlign=middle;points=[];fillColor=#ffe6cc;strokeColor=#d79b00;rounded=0;" vertex="1" parent="1">
          <mxGeometry x="150" y="20" width="440" height="20" as="geometry" />
        </mxCell>
      </root>
    </mxGraphModel>
  </diagram>
</mxfile>
